<svg width="104" height="103" viewBox="0 0 104 103" fill="none" xmlns="http://www.w3.org/2000/svg">
  <path d="M47.3153 13.8063L51.5579 10.6424L55.8724 13.8063L54.2185 8.70084L58.6049 5.60881H53.2118L51.5579 0.431446L49.904 5.60881H44.5828L48.8973 8.70084L47.3153 13.8063Z" fill="#F8DA1C"/>
  <path d="M25.0239 19.7746L29.3384 16.6107L33.6529 19.7746L31.999 14.7411L36.3854 11.5772H30.9923L29.3384 6.3998L27.6845 11.5772H22.2914L26.6778 14.7411L25.0239 19.7746Z" fill="#F8DA1C"/>
  <path d="M13.0153 22.7229L11.3614 27.9002H5.96835L10.3547 31.0642L8.70085 36.0977L13.0153 33.0057L17.3298 36.0977L15.6759 31.0642L20.0623 27.9002H14.6692L13.0153 22.7229Z" fill="#F8DA1C"/>
  <path d="M7.04697 55.2252L11.3614 58.3891L9.70755 53.2837L14.0939 50.1197H8.70084L7.04697 45.0143L5.39309 50.1197H0L4.38638 53.2837L2.7325 58.3891L7.04697 55.2252Z" fill="#F8DA1C"/>
  <path d="M14.6692 72.4831L13.0153 67.3057L11.3614 72.4831H5.96835L10.3547 75.5751L8.70085 80.6806L13.0153 77.5166L17.3298 80.6806L15.6759 75.5751L20.0623 72.4831H14.6692Z" fill="#F8DA1C"/>
  <path d="M30.9923 88.8061L29.3384 83.6288L27.6845 88.8061H22.2914L26.6778 91.8982L25.0239 97.0036L29.3384 93.8397L33.6529 97.0036L31.999 91.8982L36.3854 88.8061H30.9923Z" fill="#F8DA1C"/>
  <path d="M53.2118 94.7026L51.5579 89.5252L49.9759 94.7026H44.5828L48.8973 97.7946L47.3153 102.9L51.6298 99.7361L55.8724 102.9L54.2904 97.7946L58.6049 94.7026H53.2118Z" fill="#F8DA1C"/>
  <path d="M75.5032 88.8061L73.8493 83.6288L72.1954 88.8061H66.8024L71.1887 91.8982L69.5349 97.0036L73.8493 93.8397L78.1638 97.0036L76.5099 91.8982L80.8963 88.8061H75.5032Z" fill="#F8DA1C"/>
  <path d="M91.8263 72.4831L90.1724 67.3057L88.5185 72.4831H83.1254L87.5118 75.5751L85.8579 80.6806L90.1724 77.5166L94.4869 80.6806L92.833 75.5751L97.2194 72.4831H91.8263Z" fill="#F8DA1C"/>
  <path d="M103.116 50.0478H97.7227L96.0688 44.9424L94.415 50.0478H89.0219L93.4082 53.2118L91.7544 58.3172L96.0688 55.1533L100.383 58.3172L98.7294 53.2118L103.116 50.0478Z" fill="#F8DA1C"/>
  <path d="M85.8579 36.0258L90.1724 32.9338L94.4869 36.0258L92.833 30.9923L97.2194 27.8283H91.8263L90.1724 22.7229L88.5185 27.8283H83.1254L87.5118 30.9923L85.8579 36.0258Z" fill="#F8DA1C"/>
  <path d="M73.9212 6.3998L72.2673 11.5772H66.8743L71.2606 14.7411L69.6068 19.7746L73.9212 16.6107L78.2357 19.7746L76.5818 14.7411L80.9682 11.5772H75.5751L73.9212 6.3998Z" fill="#F8DA1C"/>
  <path d="M48.0922 54.163C48.2053 54.0122 48.2996 53.8425 48.4316 53.7105C53.3717 48.7515 58.3307 43.7924 63.2709 38.8334C63.9874 38.1169 64.817 37.7964 65.7787 38.1358C66.1369 38.2489 66.4763 38.494 66.7592 38.7769C67.7774 39.7574 68.7767 40.7567 69.7572 41.7749C70.7754 42.812 70.7754 44.113 69.7383 45.15C63.0635 51.8249 56.3886 58.4998 49.7138 65.1746C48.639 66.2494 47.338 66.2494 46.2632 65.1746C42.4355 61.3658 38.6078 57.5381 34.799 53.7105C33.7243 52.6357 33.7431 51.3347 34.799 50.2599C35.7607 49.2794 36.7223 48.3178 37.7028 47.3561C38.8152 46.2437 40.1163 46.2437 41.2288 47.3561C43.3594 49.4868 45.4901 51.6175 47.6208 53.767C47.7339 53.8802 47.8093 54.0499 47.9036 54.2007C47.9602 54.1819 48.0356 54.163 48.0922 54.163Z" fill="#283976"/>
</svg>
